<svg version="1.1" id="Layer_1" xmlns="http://www.w3.org/2000/svg" xmlns:xlink="http://www.w3.org/1999/xlink" x="0px" y="0px"
	 width="100%" viewBox="0 0 512 512" enable-background="new 0 0 512 512" xml:space="preserve">
<path fill="#FFA549" opacity="1.000000" stroke="none" 
	d="
M513.000000,224.000000 
	C513.000000,245.687561 513.000000,267.375122 512.670288,289.190277 
	C511.560730,292.738983 510.818146,296.169098 509.994232,299.579529 
	C506.805939,312.776794 504.736023,326.386841 500.096710,339.054688 
	C494.332245,354.794861 487.514435,370.376007 479.156769,384.876068 
	C470.766479,399.432831 460.627960,413.155823 449.927643,426.150787 
	C441.726196,436.111053 431.620209,444.545319 422.070770,453.342987 
	C409.446503,464.973450 395.083130,474.252991 380.050201,482.382751 
	C352.444122,497.312012 323.193237,507.403595 291.879578,511.082001 
	C291.187500,511.163300 290.623657,512.336243 290.000000,513.000000 
	C268.312439,513.000000 246.624878,513.000000 224.809753,512.670349 
	C224.013977,511.906555 223.394424,511.213745 222.670181,511.077515 
	C213.422653,509.338165 204.068970,508.067902 194.918198,505.926697 
	C165.762253,499.104218 138.821686,486.926147 114.011475,470.336578 
	C94.348526,457.188812 77.007805,441.293762 61.606037,423.232330 
	C49.623142,409.180145 39.140247,394.127075 30.535065,377.879669 
	C16.247776,350.903931 6.551171,322.342712 2.918069,291.880066 
	C2.835415,291.186981 1.663712,290.623779 1.000001,290.000000 
	C1.000000,268.645782 1.000000,247.291550 1.335054,225.809540 
	C2.110300,224.843658 2.796647,224.048691 2.952229,223.160721 
	C4.353637,215.162399 5.264698,207.057053 7.069077,199.154221 
	C13.501764,170.980331 24.370272,144.639114 39.911804,120.188942 
	C53.670368,98.543808 70.436432,79.656425 89.640877,62.707695 
	C104.017967,50.019310 119.667175,39.224609 136.508026,30.326998 
	C163.654129,15.984768 192.422653,6.310170 223.116516,2.917316 
	C223.806564,2.841040 224.374893,1.663721 225.000000,1.000000 
	C246.020889,1.000000 267.041779,1.000000 288.190552,1.335283 
	C288.991425,2.100809 289.617371,2.790253 290.344452,2.922094 
	C299.936218,4.661345 309.670197,5.797438 319.120178,8.102750 
	C345.431946,14.521456 370.079071,24.946896 393.055359,39.441700 
	C415.540802,53.626877 435.206329,70.898346 452.560394,90.984222 
	C464.115845,104.358658 474.177155,118.775490 482.543488,134.250443 
	C497.404968,161.739243 507.297760,190.960098 511.081635,222.116013 
	C511.166107,222.811417 512.336304,223.374939 513.000000,224.000000 
M325.969757,163.469772 
	C301.579224,187.860336 276.586639,211.685120 252.975449,236.808167 
	C231.415665,259.748444 207.777603,279.464233 179.422470,293.311615 
	C178.228622,293.894653 177.174194,294.785248 175.954071,295.288208 
	C172.757095,296.606049 169.596848,298.199829 166.257187,298.951141 
	C154.227722,301.657166 144.910980,308.124084 140.346512,319.550171 
	C137.243942,327.316681 134.876663,335.766357 134.318817,344.054443 
	C133.718872,352.968292 131.002060,360.406494 125.004791,366.495270 
	C118.951912,372.640533 112.366203,378.297394 105.695625,383.781036 
	C102.773285,386.183350 102.238525,388.266907 104.013611,391.425995 
	C107.293877,397.263794 112.112068,401.551361 118.541885,402.768311 
	C125.493515,404.084045 132.767517,404.987244 139.777603,404.452789 
	C158.216278,403.047089 175.692139,397.349915 192.479294,389.871246 
	C206.356216,383.689087 217.919189,374.320679 221.227509,358.752686 
	C223.126694,349.815674 227.105927,342.274841 231.380936,334.616272 
	C236.738007,325.019226 242.041458,315.388916 247.606537,305.913025 
	C249.520828,302.653473 251.838943,299.503174 254.502136,296.830627 
	C293.435699,257.760864 332.459351,218.780853 371.460693,179.778610 
	C382.298584,168.940521 393.111023,158.076843 403.978882,147.268890 
	C410.156342,141.125473 412.571014,133.825027 410.425049,125.373024 
	C406.279938,109.047440 386.233673,103.617836 373.886169,115.660248 
	C357.903259,131.248184 342.259491,147.183823 325.969757,163.469772 
z"/>
<path fill="#000000" opacity="1.000000" stroke="none" 
	d="
M224.531342,1.000000 
	C224.374893,1.663721 223.806564,2.841040 223.116516,2.917316 
	C192.422653,6.310170 163.654129,15.984768 136.508026,30.326998 
	C119.667175,39.224609 104.017967,50.019310 89.640877,62.707695 
	C70.436432,79.656425 53.670368,98.543808 39.911804,120.188942 
	C24.370272,144.639114 13.501764,170.980331 7.069077,199.154221 
	C5.264698,207.057053 4.353637,215.162399 2.952229,223.160721 
	C2.796647,224.048691 2.110300,224.843658 1.335054,225.340881 
	C1.000000,150.406296 1.000000,75.812576 1.000000,1.000000 
	C75.354088,1.000000 149.708389,1.000000 224.531342,1.000000 
z"/>
<path fill="#000000" opacity="1.000000" stroke="none" 
	d="
M513.000000,223.531342 
	C512.336304,223.374939 511.166107,222.811417 511.081635,222.116013 
	C507.297760,190.960098 497.404968,161.739243 482.543488,134.250443 
	C474.177155,118.775490 464.115845,104.358658 452.560394,90.984222 
	C435.206329,70.898346 415.540802,53.626877 393.055359,39.441700 
	C370.079071,24.946896 345.431946,14.521456 319.120178,8.102750 
	C309.670197,5.797438 299.936218,4.661345 290.344452,2.922094 
	C289.617371,2.790253 288.991425,2.100809 288.659241,1.335283 
	C363.593536,1.000000 438.187042,1.000000 513.000000,1.000000 
	C513.000000,75.020752 513.000000,149.041718 513.000000,223.531342 
z"/>
<path fill="#000000" opacity="1.000000" stroke="none" 
	d="
M1.000001,290.468658 
	C1.663712,290.623779 2.835415,291.186981 2.918069,291.880066 
	C6.551171,322.342712 16.247776,350.903931 30.535065,377.879669 
	C39.140247,394.127075 49.623142,409.180145 61.606037,423.232330 
	C77.007805,441.293762 94.348526,457.188812 114.011475,470.336578 
	C138.821686,486.926147 165.762253,499.104218 194.918198,505.926697 
	C204.068970,508.067902 213.422653,509.338165 222.670181,511.077515 
	C223.394424,511.213745 224.013977,511.906555 224.341095,512.670349 
	C149.739639,513.000000 75.479271,513.000000 1.000000,513.000000 
	C1.000000,438.979248 1.000000,364.958282 1.000001,290.468658 
z"/>
<path fill="#000000" opacity="1.000000" stroke="none" 
	d="
M290.468658,513.000000 
	C290.623657,512.336243 291.187500,511.163300 291.879578,511.082001 
	C323.193237,507.403595 352.444122,497.312012 380.050201,482.382751 
	C395.083130,474.252991 409.446503,464.973450 422.070770,453.342987 
	C431.620209,444.545319 441.726196,436.111053 449.927643,426.150787 
	C460.627960,413.155823 470.766479,399.432831 479.156769,384.876068 
	C487.514435,370.376007 494.332245,354.794861 500.096710,339.054688 
	C504.736023,326.386841 506.805939,312.776794 509.994232,299.579529 
	C510.818146,296.169098 511.560730,292.738983 512.670288,289.658936 
	C513.000000,364.260345 513.000000,438.520721 513.000000,513.000000 
	C438.979248,513.000000 364.958282,513.000000 290.468658,513.000000 
z"/>
<path fill="#FCF9F6" opacity="1.000000" stroke="none" 
	d="
M326.219727,163.219788 
	C342.259491,147.183823 357.903259,131.248184 373.886169,115.660248 
	C386.233673,103.617836 406.279938,109.047440 410.425049,125.373024 
	C412.571014,133.825027 410.156342,141.125473 403.978882,147.268890 
	C393.111023,158.076843 382.298584,168.940521 371.460693,179.778610 
	C332.459351,218.780853 293.435699,257.760864 254.502136,296.830627 
	C251.838943,299.503174 249.520828,302.653473 247.606537,305.913025 
	C242.041458,315.388916 236.738007,325.019226 231.380936,334.616272 
	C227.105927,342.274841 223.126694,349.815674 221.227509,358.752686 
	C217.919189,374.320679 206.356216,383.689087 192.479294,389.871246 
	C175.692139,397.349915 158.216278,403.047089 139.777603,404.452789 
	C132.767517,404.987244 125.493515,404.084045 118.541885,402.768311 
	C112.112068,401.551361 107.293877,397.263794 104.013611,391.425995 
	C102.238525,388.266907 102.773285,386.183350 105.695625,383.781036 
	C112.366203,378.297394 118.951912,372.640533 125.004791,366.495270 
	C131.002060,360.406494 133.718872,352.968292 134.318817,344.054443 
	C134.876663,335.766357 137.243942,327.316681 140.346512,319.550171 
	C144.910980,308.124084 154.227722,301.657166 166.257187,298.951141 
	C169.596848,298.199829 172.757095,296.606049 175.954071,295.288208 
	C177.174194,294.785248 178.228622,293.894653 179.422470,293.311615 
	C207.777603,279.464233 231.415665,259.748444 252.975449,236.808167 
	C276.586639,211.685120 301.579224,187.860336 326.219727,163.219788 
M125.125061,379.303223 
	C125.932251,379.099213 126.758072,378.950104 127.543884,378.683167 
	C145.036133,372.740814 161.533157,365.001221 175.181671,352.160187 
	C177.501678,349.977386 180.098312,349.114380 181.566483,352.487152 
	C182.128494,353.778229 180.823318,356.623566 179.518372,357.870331 
	C167.389679,369.458710 152.865326,377.172699 137.280197,382.932343 
	C129.398270,385.845215 121.288734,388.142120 113.282112,390.717529 
	C113.102615,391.220154 112.923126,391.722778 112.743637,392.225403 
	C116.713593,393.811737 120.612907,396.487823 124.668648,396.750702 
	C132.395264,397.251587 140.328354,397.118591 147.965668,395.915466 
	C163.986755,393.391663 179.377136,388.377167 193.877045,381.059723 
	C204.620712,375.637878 212.346375,367.346466 214.659149,355.125732 
	C215.086975,352.865082 214.587036,349.475800 213.118973,347.958435 
	C200.026749,334.426636 186.675171,321.142822 173.218521,307.971375 
	C171.954803,306.734467 169.269104,305.967987 167.545120,306.348633 
	C158.667007,308.308838 150.985321,312.917297 147.571655,321.422394 
	C144.466095,329.159851 142.287018,337.600189 141.594803,345.888977 
	C140.783203,355.607239 137.110580,363.476959 131.082703,370.650146 
	C128.735733,373.443054 126.300117,376.161469 123.491570,379.061462 
	C123.782478,379.162842 124.073387,379.264221 125.125061,379.303223 
M305.603149,194.103058 
	C279.510071,220.195480 253.416962,246.287903 227.684387,272.019806 
	C234.733810,279.075439 241.385315,285.732819 247.255020,291.607727 
	C286.816559,252.046555 326.666565,212.196915 365.778290,173.085571 
	C359.685028,166.923141 353.097443,160.260757 346.254517,153.340164 
	C333.123291,166.507935 319.613251,180.055542 305.603149,194.103058 
M225.003143,281.431610 
	C222.555496,278.030670 220.085922,277.735779 216.317123,280.099976 
	C206.308029,286.378784 195.971817,292.135773 185.773026,298.112793 
	C183.410400,299.497437 181.076996,300.931946 179.871170,301.657196 
	C193.156601,314.947296 206.237427,328.032715 219.338623,341.138519 
	C226.829605,327.822876 234.736633,313.767700 242.914230,299.231567 
	C237.052429,293.410400 231.279312,287.677338 225.003143,281.431610 
M388.606995,116.130013 
	C379.213928,117.150314 375.417023,125.440918 369.466156,130.280457 
	C376.394379,137.245422 383.035675,143.921921 390.571625,151.497849 
	C392.933136,148.765121 395.357239,145.575241 398.177124,142.785416 
	C402.603577,138.406219 405.524719,133.587662 403.404114,127.208229 
	C401.195465,120.563934 396.367767,116.925972 388.606995,116.130013 
M379.042603,151.438034 
	C374.035278,146.370926 369.027954,141.303818 363.974152,136.189713 
	C359.987915,140.131332 356.477814,143.602112 353.336823,146.707932 
	C360.111786,153.488907 366.738495,160.121521 373.265839,166.654678 
	C376.520996,163.445648 380.102234,159.915146 384.246277,155.829834 
	C382.616180,154.481827 381.076630,153.208694 379.042603,151.438034 
z"/>
<path fill="#FFA64A" opacity="1.000000" stroke="none" 
	d="
M305.853180,193.853119 
	C319.613251,180.055542 333.123291,166.507935 346.254517,153.340164 
	C353.097443,160.260757 359.685028,166.923141 365.778290,173.085571 
	C326.666565,212.196915 286.816559,252.046555 247.255020,291.607727 
	C241.385315,285.732819 234.733810,279.075439 227.684387,272.019806 
	C253.416962,246.287903 279.510071,220.195480 305.853180,193.853119 
z"/>
<path fill="#FFA64B" opacity="1.000000" stroke="none" 
	d="
M123.904877,378.913818 
	C126.300117,376.161469 128.735733,373.443054 131.082703,370.650146 
	C137.110580,363.476959 140.783203,355.607239 141.594803,345.888977 
	C142.287018,337.600189 144.466095,329.159851 147.571655,321.422394 
	C150.985321,312.917297 158.667007,308.308838 167.545120,306.348633 
	C169.269104,305.967987 171.954803,306.734467 173.218521,307.971375 
	C186.675171,321.142822 200.026749,334.426636 213.118973,347.958435 
	C214.587036,349.475800 215.086975,352.865082 214.659149,355.125732 
	C212.346375,367.346466 204.620712,375.637878 193.877045,381.059723 
	C179.377136,388.377167 163.986755,393.391663 147.965668,395.915466 
	C140.328354,397.118591 132.395264,397.251587 124.668648,396.750702 
	C120.612907,396.487823 116.713593,393.811737 112.743637,392.225403 
	C112.923126,391.722778 113.102615,391.220154 113.282112,390.717529 
	C121.288734,388.142120 129.398270,385.845215 137.280197,382.932343 
	C152.865326,377.172699 167.389679,369.458710 179.518372,357.870331 
	C180.823318,356.623566 182.128494,353.778229 181.566483,352.487152 
	C180.098312,349.114380 177.501678,349.977386 175.181671,352.160187 
	C161.533157,365.001221 145.036133,372.740814 127.543884,378.683167 
	C126.758072,378.950104 125.932251,379.099213 124.630295,379.220978 
	C124.135536,379.138733 123.904877,378.913818 123.904877,378.913818 
z"/>
<path fill="#FFA64B" opacity="1.000000" stroke="none" 
	d="
M225.254669,281.687927 
	C231.279312,287.677338 237.052429,293.410400 242.914230,299.231567 
	C234.736633,313.767700 226.829605,327.822876 219.338623,341.138519 
	C206.237427,328.032715 193.156601,314.947296 179.871170,301.657196 
	C181.076996,300.931946 183.410400,299.497437 185.773026,298.112793 
	C195.971817,292.135773 206.308029,286.378784 216.317123,280.099976 
	C220.085922,277.735779 222.555496,278.030670 225.254669,281.687927 
z"/>
<path fill="#FFA74D" opacity="1.000000" stroke="none" 
	d="
M389.007751,116.130859 
	C396.367767,116.925972 401.195465,120.563934 403.404114,127.208229 
	C405.524719,133.587662 402.603577,138.406219 398.177124,142.785416 
	C395.357239,145.575241 392.933136,148.765121 390.571625,151.497849 
	C383.035675,143.921921 376.394379,137.245422 369.466156,130.280457 
	C375.417023,125.440918 379.213928,117.150314 389.007751,116.130859 
z"/>
<path fill="#FFA64B" opacity="1.000000" stroke="none" 
	d="
M379.289856,151.686798 
	C381.076630,153.208694 382.616180,154.481827 384.246277,155.829834 
	C380.102234,159.915146 376.520996,163.445648 373.265839,166.654678 
	C366.738495,160.121521 360.111786,153.488907 353.336823,146.707932 
	C356.477814,143.602112 359.987915,140.131332 363.974152,136.189713 
	C369.027954,141.303818 374.035278,146.370926 379.289856,151.686798 
z"/>
<path fill="#FFA64B" opacity="1.000000" stroke="none" 
	d="
M124.249916,379.252136 
	C124.073387,379.264221 123.782478,379.162842 123.698227,378.987640 
	C123.904877,378.913818 124.135536,379.138733 124.249916,379.252136 
z"/>
</svg>